<svg width="20" height="20" viewBox="0 0 20 20" fill="none" xmlns="http://www.w3.org/2000/svg">
<path d="M12.19 12.19L4 16L7.81 7.81L16 4M10 0C8.68678 0 7.38642 0.258658 6.17317 0.761205C4.95991 1.26375 3.85752 2.00035 2.92893 2.92893C1.05357 4.8043 0 7.34784 0 10C0 12.6522 1.05357 15.1957 2.92893 17.0711C3.85752 17.9997 4.95991 18.7362 6.17317 19.2388C7.38642 19.7413 8.68678 20 10 20C12.6522 20 15.1957 18.9464 17.0711 17.0711C18.9464 15.1957 20 12.6522 20 10C20 8.68678 19.7413 7.38642 19.2388 6.17317C18.7362 4.95991 17.9997 3.85752 17.0711 2.92893C16.1425 2.00035 15.0401 1.26375 13.8268 0.761205C12.6136 0.258658 11.3132 0 10 0ZM10 8.9C9.70826 8.9 9.42847 9.01589 9.22218 9.22218C9.01589 9.42847 8.9 9.70826 8.9 10C8.9 10.2917 9.01589 10.5715 9.22218 10.7778C9.42847 10.9841 9.70826 11.1 10 11.1C10.2917 11.1 10.5715 10.9841 10.7778 10.7778C10.9841 10.5715 11.1 10.2917 11.1 10C11.1 9.70826 10.9841 9.42847 10.7778 9.22218C10.5715 9.01589 10.2917 8.9 10 8.9Z" fill="#3EA930"/>
</svg>
