<svg width="20" height="20" viewBox="0 0 20 20" fill="none" xmlns="http://www.w3.org/2000/svg">
<path d="M19.1115 7.41964C19.0539 7.24983 18.9478 7.10061 18.8063 6.99043C18.6648 6.88024 18.4941 6.81389 18.3154 6.79959L13.0862 6.38408L10.8234 1.37506C10.7513 1.21373 10.6341 1.07671 10.4859 0.980522C10.3377 0.884337 10.1648 0.833105 9.98809 0.833008C9.8114 0.832911 9.63845 0.883954 9.49013 0.979976C9.3418 1.076 9.22444 1.2129 9.15219 1.37415L6.88938 6.38408L1.66023 6.79959C1.48454 6.8135 1.31657 6.87774 1.17644 6.98462C1.0363 7.0915 0.929918 7.23648 0.870023 7.40224C0.810128 7.56799 0.799253 7.74749 0.838701 7.91926C0.878149 8.09103 0.966248 8.2478 1.09246 8.37081L4.95677 12.1379L3.59009 18.0559C3.54859 18.235 3.56189 18.4225 3.62826 18.594C3.69463 18.7655 3.81102 18.913 3.9623 19.0175C4.11359 19.1221 4.2928 19.1787 4.47667 19.1801C4.66054 19.1815 4.84059 19.1276 4.99345 19.0254L9.9878 15.6958L14.9821 19.0254C15.1384 19.1291 15.3226 19.1825 15.5101 19.1784C15.6976 19.1743 15.8794 19.1129 16.0309 19.0024C16.1824 18.8919 16.2965 18.7377 16.3578 18.5604C16.419 18.3832 16.4246 18.1914 16.3736 18.0109L14.696 12.1406L18.8565 8.39649C19.129 8.15067 19.2289 7.76727 19.1115 7.41964Z" fill="#CE3126"/>
</svg>
